<svg width="32" height="32" viewBox="0 0 32 32" fill="none" xmlns="http://www.w3.org/2000/svg">
  <defs>
    <linearGradient id="bgGradient" x1="0%" y1="0%" x2="100%" y2="100%">
      <stop offset="0%" style="stop-color:#3B82F6;stop-opacity:1" />
      <stop offset="100%" style="stop-color:#1E40AF;stop-opacity:1" />
    </linearGradient>
  </defs>
  <!-- Background circle with gradient -->
  <circle cx="16" cy="16" r="16" fill="url(#bgGradient)"/>
  
  <!-- Chart bars representing revenue growth -->
  <rect x="8" y="18" width="2" height="6" fill="white" opacity="0.9"/>
  <rect x="11" y="14" width="2" height="10" fill="white" opacity="0.9"/>
  <rect x="14" y="12" width="2" height="12" fill="white" opacity="0.9"/>
  <rect x="17" y="10" width="2" height="14" fill="white" opacity="0.9"/>
  <rect x="20" y="8" width="2" height="16" fill="white" opacity="0.9"/>
  
  <!-- Euro symbol - using path for better compatibility -->
  <path d="M16 6C11.6 6 8 8.5 8 11.5C8 13.2 9.1 14.6 10.8 15.3L10.8 16.7C9.1 17.4 8 18.8 8 20.5C8 23.5 11.6 26 16 26C20.4 26 24 23.5 24 20.5C24 18.8 22.9 17.4 21.2 16.7L21.2 15.3C22.9 14.6 24 13.2 24 11.5C24 8.5 20.4 6 16 6ZM12 11.5C12 10.1 13.6 9 16 9C18.4 9 20 10.1 20 11.5C20 12.9 18.4 14 16 14C13.6 14 12 12.9 12 11.5ZM16 18C18.4 18 20 19.1 20 20.5C20 21.9 18.4 23 16 23C13.6 23 12 21.9 12 20.5C12 19.1 13.6 18 16 18Z" fill="white" opacity="0.95"/>
</svg>